{
    "asset" : {
        "generator" : "Khronos glTF Blender I/O v3.4.50",
        "version" : "2.0"
    },
    "scene" : 1,
    "scenes" : [
        {
            "name" : "Helmet Print"
        },
        {
            "name" : "HelmetExport",
            "nodes" : [
                0
            ]
        },
        {
            "name" : "Horns"
        },
        {
            "name" : "Scene",
            "nodes" : [
                1
            ]
        },
        {
            "name" : "Wings"
        }
    ],
    "nodes" : [
        {
            "mesh" : 0,
            "name" : "Plane.296",
            "rotation" : [
                0.04809005558490753,
                0.7054696083068848,
                0.04809006303548813,
                0.7054696083068848
            ]
        },
        {
            "mesh" : 1,
            "name" : "rp_nathan_animated_003_walking_geo.004",
            "rotation" : [
                0.7071068286895752,
                0,
                0,
                0.7071068286895752
            ],
            "scale" : [
                0.00958123430609703,
                0.00958123430609703,
                0.00958123430609703
            ],
            "translation" : [
                0,
                0,
                0.03564589098095894
            ]
        }
    ],
    "animations" : [
        {
            "channels" : [
                {
                    "sampler" : 0,
                    "target" : {
                        "node" : 0,
                        "path" : "translation"
                    }
                },
                {
                    "sampler" : 1,
                    "target" : {
                        "node" : 0,
                        "path" : "rotation"
                    }
                },
                {
                    "sampler" : 2,
                    "target" : {
                        "node" : 0,
                        "path" : "scale"
                    }
                }
            ],
            "name" : "Plane.296",
            "samplers" : [
                {
                    "input" : 9,
                    "interpolation" : "LINEAR",
                    "output" : 10
                },
                {
                    "input" : 9,
                    "interpolation" : "LINEAR",
                    "output" : 11
                },
                {
                    "input" : 9,
                    "interpolation" : "LINEAR",
                    "output" : 12
                }
            ]
        },
        {
            "channels" : [
                {
                    "sampler" : 0,
                    "target" : {
                        "node" : 1,
                        "path" : "translation"
                    }
                },
                {
                    "sampler" : 1,
                    "target" : {
                        "node" : 1,
                        "path" : "rotation"
                    }
                },
                {
                    "sampler" : 2,
                    "target" : {
                        "node" : 1,
                        "path" : "scale"
                    }
                }
            ],
            "name" : "rp_nathan_animated_003_walking_geo.004",
            "samplers" : [
                {
                    "input" : 13,
                    "interpolation" : "LINEAR",
                    "output" : 14
                },
                {
                    "input" : 13,
                    "interpolation" : "LINEAR",
                    "output" : 15
                },
                {
                    "input" : 13,
                    "interpolation" : "LINEAR",
                    "output" : 16
                }
            ]
        }
    ],
    "meshes" : [
        {
            "name" : "Plane.343",
            "primitives" : [
                {
                    "attributes" : {
                        "POSITION" : 0,
                        "TEXCOORD_0" : 1,
                        "TEXCOORD_1" : 2,
                        "NORMAL" : 3
                    },
                    "indices" : 4
                }
            ]
        },
        {
            "name" : "Mesh.005",
            "primitives" : [
                {
                    "attributes" : {
                        "POSITION" : 5,
                        "TEXCOORD_0" : 6,
                        "NORMAL" : 7
                    },
                    "indices" : 8
                }
            ]
        }
    ],
    "accessors" : [
        {
            "bufferView" : 0,
            "componentType" : 5126,
            "count" : 22342,
            "max" : [
                0.5286827087402344,
                0.22361157834529877,
                0.4320705533027649
            ],
            "min" : [
                -0.11375599354505539,
                -0.2504345178604126,
                -0.4320705533027649
            ],
            "type" : "VEC3"
        },
        {
            "bufferView" : 1,
            "componentType" : 5126,
            "count" : 22342,
            "type" : "VEC2"
        },
        {
            "bufferView" : 2,
            "componentType" : 5126,
            "count" : 22342,
            "type" : "VEC2"
        },
        {
            "bufferView" : 3,
            "componentType" : 5126,
            "count" : 22342,
            "type" : "VEC3"
        },
        {
            "bufferView" : 4,
            "componentType" : 5123,
            "count" : 63198,
            "type" : "SCALAR"
        },
        {
            "bufferView" : 5,
            "componentType" : 5126,
            "count" : 12216,
            "max" : [
                93.87062072753906,
                21.350507736206055,
                1.3050148487091064
            ],
            "min" : [
                -95.39098358154297,
                -13.269074440002441,
                -185.6081085205078
            ],
            "type" : "VEC3"
        },
        {
            "bufferView" : 6,
            "componentType" : 5126,
            "count" : 12216,
            "type" : "VEC2"
        },
        {
            "bufferView" : 7,
            "componentType" : 5126,
            "count" : 12216,
            "type" : "VEC3"
        },
        {
            "bufferView" : 8,
            "componentType" : 5123,
            "count" : 64518,
            "type" : "SCALAR"
        },
        {
            "bufferView" : 9,
            "componentType" : 5126,
            "count" : 341,
            "max" : [
                14.166666666666666
            ],
            "min" : [
                0
            ],
            "type" : "SCALAR"
        },
        {
            "bufferView" : 10,
            "componentType" : 5126,
            "count" : 341,
            "type" : "VEC3"
        },
        {
            "bufferView" : 11,
            "componentType" : 5126,
            "count" : 341,
            "type" : "VEC4"
        },
        {
            "bufferView" : 12,
            "componentType" : 5126,
            "count" : 341,
            "type" : "VEC3"
        },
        {
            "bufferView" : 13,
            "componentType" : 5126,
            "count" : 341,
            "max" : [
                11.333333333333334
            ],
            "min" : [
                0
            ],
            "type" : "SCALAR"
        },
        {
            "bufferView" : 14,
            "componentType" : 5126,
            "count" : 341,
            "type" : "VEC3"
        },
        {
            "bufferView" : 15,
            "componentType" : 5126,
            "count" : 341,
            "type" : "VEC4"
        },
        {
            "bufferView" : 16,
            "componentType" : 5126,
            "count" : 341,
            "type" : "VEC3"
        }
    ],
    "bufferViews" : [
        {
            "buffer" : 0,
            "byteLength" : 268104,
            "byteOffset" : 0,
            "target" : 34962
        },
        {
            "buffer" : 0,
            "byteLength" : 178736,
            "byteOffset" : 268104,
            "target" : 34962
        },
        {
            "buffer" : 0,
            "byteLength" : 178736,
            "byteOffset" : 446840,
            "target" : 34962
        },
        {
            "buffer" : 0,
            "byteLength" : 268104,
            "byteOffset" : 625576,
            "target" : 34962
        },
        {
            "buffer" : 0,
            "byteLength" : 126396,
            "byteOffset" : 893680,
            "target" : 34963
        },
        {
            "buffer" : 0,
            "byteLength" : 146592,
            "byteOffset" : 1020076,
            "target" : 34962
        },
        {
            "buffer" : 0,
            "byteLength" : 97728,
            "byteOffset" : 1166668,
            "target" : 34962
        },
        {
            "buffer" : 0,
            "byteLength" : 146592,
            "byteOffset" : 1264396,
            "target" : 34962
        },
        {
            "buffer" : 0,
            "byteLength" : 129036,
            "byteOffset" : 1410988,
            "target" : 34963
        },
        {
            "buffer" : 0,
            "byteLength" : 1364,
            "byteOffset" : 1540024
        },
        {
            "buffer" : 0,
            "byteLength" : 4092,
            "byteOffset" : 1541388
        },
        {
            "buffer" : 0,
            "byteLength" : 5456,
            "byteOffset" : 1545480
        },
        {
            "buffer" : 0,
            "byteLength" : 4092,
            "byteOffset" : 1550936
        },
        {
            "buffer" : 0,
            "byteLength" : 1364,
            "byteOffset" : 1555028
        },
        {
            "buffer" : 0,
            "byteLength" : 4092,
            "byteOffset" : 1556392
        },
        {
            "buffer" : 0,
            "byteLength" : 5456,
            "byteOffset" : 1560484
        },
        {
            "buffer" : 0,
            "byteLength" : 4092,
            "byteOffset" : 1565940
        }
    ],
    "buffers" : [
        {
            "byteLength" : 1570032,
            "uri" : "data:application/octet-stream;base64,"
        }
    ]
}
